<?xml version="1.0" encoding="utf-8"?>
<!-- Generator: Adobe Illustrator 27.5.0, SVG Export Plug-In . SVG Version: 6.00 Build 0)  -->
<svg version="1.1" xmlns="http://www.w3.org/2000/svg" xmlns:xlink="http://www.w3.org/1999/xlink" x="0px" y="0px"
	 viewBox="0 0 750 500"  xml:space="preserve">
<g id="BACKGROUND" style="fill: none;">
	<rect width="750" height="500"/>
</g>
<g id="OBJECTS">
	
	<path style="fill:#FBE7DE;" d="M520.18,470.637H91.788c-14.358-82.799,26.532-170.51,97.752-185.55
		c35.253-7.444,73.448,1.101,105.899-16.615c59.391-32.423,70.307-135.174,129.566-167.925
		c41.047-22.686,92.428-1.131,122.734,38.35c35.494,46.24,47.138,115.668,29.202,174.116
		C559.986,368.263,519.408,411.957,520.18,470.637z"/>
	<path style="fill:#EF9B00;" d="M392.873,470.22c-1.815-12.912-0.585-26.168,2.881-38.737
		c13.117-47.559,76.796-91.956,119.418-46.581c14.694-23.184,29.155-41.051,48.782-60.24c19.712-19.273,42.713-36.737,69.697-42.387
		c26.984-5.65,58.505,3.297,72.667,26.951c10.739,17.936,9.805,40.976,2.539,60.578c-7.266,19.602-20.15,36.529-32.853,53.132
		c-10.773,14.08-21.545,28.16-32.318,42.24c-2.069,2.704-2.025,5.095-4.728,7.164L392.873,470.22z"/>
	<g>
		<defs>
			<rect id="SVGID_1_" x="252" y="3" width="506.831" height="469.582"/>
		</defs>
		<clipPath id="SVGID_00000134969975118879116910000005318587958970626708_">
			<use xlink:href="#SVGID_1_" />
		</clipPath>
		<g style="clip-path:url(#SVGID_00000134969975118879116910000005318587958970626708_);">
			<g>
				<g>
					
						<path style="fill:#2C201B;stroke:#2C201B;stroke-width:1.6241;stroke-linecap:round;stroke-linejoin:round;stroke-miterlimit:10;" d="
						M549.515,303.16l-31.231-1.755c-24.779-1.392-46.191,17.742-47.584,42.521l-2.473,44.028
						c-3.538,28.562-5.531,113.759-6.663,197.773h49.855c3.89-38.149,7.516-75.484,10.143-105.355l8.305,0.467
						c1.439,35.974,4.044,76.158,6.384,104.888h46.265c3.028-57.543,7.036-162.633,7.431-196.883l-0.053,0.019l2.141-38.12
						C593.428,325.965,574.293,304.553,549.515,303.16z"/>
					<path style="fill:#D9C6B9;" d="M500,201l-121.715-37.635l-49.897-81.878c-6.847,2.565-13.824,4.758-20.84,6.831
						c-0.06,1.258,0.028,2.531,0.278,3.79l29.425,101.994c1.35,6.778,5.887,12.055,11.683,14.524l3.005,1.252l108.396,45.234
						c13.28,5.542,34.269,12.413,39.677-1.198C505.419,240.305,513.28,206.542,500,201z"/>
					<g>
						<g>
							<path style="fill:#DE6944;" d="M338.012,51.211c-3.129-1.532-11.607,13.286-11.607,13.286s-5.653-33.276-10.163-32.91
								c-0.182,0.015-0.342,0.085-0.493,0.178c-0.381,1.08-0.784,2.151-1.212,3.21c-0.694,7.035,2.563,22.569,2.563,22.569
								s-1.439-5.229-3.481-10.949c-0.778,4.013-2.209,7.849-4.066,11.529c0.28,0.727,0.447,1.144,0.447,1.144
								s-0.173-0.402-0.477-1.083c-2.706,5.348-6.297,10.372-10.035,15.153c4.09,9.892,8.224,18.94,8.224,18.94l18.886-6.251
								C326.597,86.026,343.292,53.797,338.012,51.211z"/>
						</g>
						<path style="fill:#DE6944;" d="M305.255,53.287c-2.227-1.104-5.077-0.071-6.652,1.852c-1.575,1.923-2.092,4.509-2.172,6.993
							c-0.178,5.558,1.634,11.159,5.035,15.558c2.302,2.978,5.975,5.566,9.603,4.561c3.066-0.849,4.913-3.928,6.148-6.86
							c2.942-6.988,6.957-21.066,1.782-27.942C314.555,41.546,300.968,45.396,305.255,53.287z"/>
					</g>
					<g>
						<path style="fill:#4B39CF;" d="M545.321,475.952c-11.536,5.405-23.771,6.991-36.298,4.707
							c-1.554-0.284-0.896-2.653,0.654-2.371c11.83,2.156,23.521,0.64,34.404-4.46C545.504,473.162,546.754,475.28,545.321,475.952
							L545.321,475.952z"/>
					</g>
					
						<polygon style="fill:#2C201B;stroke:#2C201B;stroke-width:1.6241;stroke-linecap:round;stroke-linejoin:round;stroke-miterlimit:10;" points="
						582.864,585.728 588.024,458.085 530.325,484.049 533.902,585.728 					"/>
					<g>
						<path style="fill:#DE6944;" d="M546.609,142.538c-1.025,5.431,0.662,20.019,2.246,25.314
							c4.072,13.618,9.889,20.652,15.656,26.579c-3.575,4.917-21.816,7.247-27.707,8.749c-5.891,1.503-12.301,0.883-17.794-1.721
							c-1.499-0.711-2.927-1.561-4.352-2.409c-1.749-1.041-3.497-2.082-5.245-3.124c7.579-13.053,14.055-27.496,12.026-42.453
							c3.783-0.704,9.138-2.299,12.921-3.004c1.641-0.305,3.299-0.612,4.967-0.541C541.973,150.044,543.998,142.985,546.609,142.538
							z"/>
						<path style="fill:#D9C6B9;" d="M455.211,306.234c1.175,21.561,4.243,42.923,9.023,64.141c0.827,3.159,1.666,6.311,2.475,9.473
							c1.43,5.585,1.424,10.649,5.58,14.71c10.097,9.866,26.371,9.458,39.592,9.293c25.979-0.325,51.8-2.67,77.564-5.687
							c0.893-0.104,1.591-0.191,2.045-0.247c0.015,0,0.03-0.003,0.045-0.006l0.161-0.021c0.248-0.03,0.379-0.051,0.379-0.057
							c0.582-8.264,1.786-17.749,3.359-27.879c1.23-7.93,2.687-16.253,4.246-24.696c0.406-2.21,0.821-4.425,1.242-6.643
							c0.006-0.03,0.012-0.06,0.018-0.09c3.432-18.171,6.019-36.541,10.81-54.428c4.16-15.529,17.678-34.739,14.25-51.096
							c-5.927-28.274-55.707-41.155-78.367-40.496c-12.631,0.367-25.188,1.765-37.784,2.672
							c-14.116,1.017-30.497-0.554-41.432,10.219c-8.171,8.05-8.72,18.962-10.205,29.751c-1.733,12.598-2.834,25.284-3.3,37.993
							C454.505,284.227,454.613,295.256,455.211,306.234z"/>
					</g>
					
						<path style="fill:none;stroke:#4B39CF;stroke-width:2.0698;stroke-linecap:round;stroke-linejoin:round;stroke-miterlimit:10;" d="
						M539.777,476.679c0.282,30.857,3.366,61.702,4.161,92.359"/>
					
						<path style="fill:none;stroke:#4B39CF;stroke-width:2.0698;stroke-linecap:round;stroke-linejoin:round;stroke-miterlimit:10;" d="
						M514.702,481.298c-3.638,28.705-6.723,58.317-9.36,87.375"/>
					<path style="fill:#DE6944;" d="M512.5,143.672c0.007,0.178,0.017,0.357,0.03,0.535c0.007,0.09,0.013,0.181,0.022,0.271
						c0.005,0.056,0.009,0.112,0.016,0.168c0.017,0.172,0.036,0.34,0.058,0.51c0.007,0.051,0.013,0.101,0.02,0.152
						c0.035,0.247,0.075,0.493,0.121,0.736c0.048,0.259,0.102,0.516,0.163,0.771c0.021,0.091,0.044,0.18,0.066,0.27
						c0.013,0.054,0.028,0.109,0.043,0.163c0.056,0.217,0.118,0.43,0.185,0.643c0.158,0.515,0.342,1.02,0.55,1.514
						c0.049,0.119,0.101,0.237,0.153,0.355c0.475,1.058,1.055,2.057,1.729,2.983c0.147,0.2,0.297,0.397,0.45,0.589
						c0.083,0.105,0.168,0.206,0.253,0.309c0.143,0.168,0.287,0.333,0.435,0.496c0.362,0.399,0.744,0.778,1.143,1.139
						c0.187,0.168,0.377,0.331,0.57,0.491c0.791,0.651,1.641,1.226,2.543,1.716c0.679,0.372,1.388,0.692,2.122,0.962
						c0.161,0.059,0.323,0.116,0.484,0.169c0.115,0.039,0.231,0.076,0.348,0.11c0.062,0.02,0.127,0.04,0.191,0.058
						c0.059,0.017,0.118,0.034,0.177,0.049c0.189,0.054,0.378,0.104,0.569,0.149c1.134,0.271,2.311,0.418,3.52,0.43
						c0.266,0.002,0.528-0.002,0.791-0.013c2.951-0.12,5.708-1.059,8.052-2.599c4.416-2.9,7.375-7.933,7.425-13.653l0.034-3.881
						l0.101-11.415l0.032-3.57l0.044-4.927c0.002-0.271-0.002-0.541-0.013-0.808c-0.005-0.132-0.012-0.265-0.02-0.397
						c-0.006-0.106-0.013-0.209-0.023-0.313c-0.007-0.104-0.018-0.21-0.03-0.314c-0.001-0.026-0.004-0.052-0.008-0.075
						c-0.006-0.064-0.013-0.128-0.022-0.192c-0.008-0.077-0.017-0.152-0.028-0.229c-0.005-0.047-0.012-0.093-0.018-0.139
						c-0.015-0.112-0.032-0.224-0.051-0.336c-0.015-0.094-0.031-0.189-0.049-0.283c-0.008-0.056-0.019-0.11-0.03-0.166
						c-0.04-0.219-0.087-0.435-0.138-0.65c-0.027-0.121-0.057-0.244-0.089-0.363c-0.028-0.112-0.058-0.222-0.089-0.333
						c-0.03-0.108-0.062-0.217-0.094-0.325c-0.002-0.003-0.002-0.007-0.004-0.01c-0.033-0.108-0.067-0.215-0.101-0.323
						c-0.036-0.108-0.072-0.216-0.109-0.324c-0.037-0.106-0.076-0.214-0.115-0.321c-0.08-0.216-0.166-0.43-0.254-0.642
						c-0.017-0.041-0.035-0.08-0.053-0.121c-0.075-0.174-0.152-0.348-0.233-0.519c-0.019-0.04-0.038-0.079-0.057-0.119
						c-0.085-0.177-0.172-0.351-0.263-0.525c-0.014-0.027-0.029-0.055-0.043-0.082c-2.705-5.092-7.98-8.593-14.041-8.649
						c-6.817-0.062-12.721,4.25-15.121,10.348c-0.722,1.833-1.128,3.828-1.146,5.914l-0.212,23.794
						C512.485,143.125,512.49,143.399,512.5,143.672z"/>
					<path style="fill:#2C201B;" d="M522.588,138.082c5.276-0.356,10.205,1.949,14.892,4.194c1,0.686,2.113,1.177,3.277,1.471
						c1.278,0.448,2.595,0.677,3.888,0.673c-0.444,5.185-3.257,9.697-7.341,12.379c-2.344,1.54-5.102,2.479-8.052,2.599
						c-0.262,0.011-0.525,0.015-0.791,0.013c-1.209-0.012-2.386-0.159-3.52-0.43c-0.191-0.045-0.38-0.095-0.569-0.149
						c-0.059-0.015-0.118-0.032-0.177-0.049c-0.064-0.018-0.128-0.038-0.191-0.058c-0.117-0.034-0.232-0.071-0.348-0.11
						c-0.162-0.053-0.324-0.109-0.484-0.169c-0.734-0.27-1.443-0.59-2.122-0.962c-0.902-0.49-1.752-1.066-2.544-1.716
						c-0.193-0.16-0.383-0.323-0.57-0.491c-0.399-0.361-0.781-0.74-1.143-1.139c-0.149-0.163-0.293-0.328-0.435-0.496
						c-0.085-0.103-0.169-0.204-0.253-0.309c-0.153-0.192-0.303-0.389-0.45-0.589c-0.674-0.926-1.254-1.925-1.729-2.983
						c-0.052-0.117-0.104-0.236-0.153-0.354c-0.208-0.494-0.392-0.999-0.55-1.514c-0.067-0.213-0.129-0.426-0.185-0.643
						c-0.015-0.054-0.029-0.108-0.043-0.163c-0.022-0.089-0.045-0.178-0.066-0.27c-0.061-0.255-0.115-0.512-0.163-0.771
						c-0.046-0.243-0.086-0.489-0.121-0.736c-0.007-0.051-0.013-0.101-0.02-0.152c-0.022-0.17-0.041-0.338-0.058-0.51
						c-0.007-0.056-0.011-0.112-0.016-0.168c-0.008-0.09-0.015-0.182-0.022-0.271c-0.013-0.178-0.023-0.357-0.031-0.535
						c-0.011-0.273-0.015-0.547-0.013-0.822l0.002-0.179C515.419,140.258,518.711,138.343,522.588,138.082z"/>
					<path style="fill:#DE6944;" d="M558.888,137.908c-0.041,4.605-3.742,8.305-8.266,8.263c-4.524-0.042-8.159-3.809-8.118-8.415
						c0.041-4.605,3.742-8.305,8.266-8.263C555.295,129.535,558.929,133.302,558.888,137.908z"/>
					<path style="fill:#2C201B;" d="M515.069,109.038c2.035-2.931,5.037-5.133,8.358-6.435c2.983-1.169,6.282-1.633,9.427-1.025
						c3.145,0.607,6.114,2.338,7.957,4.958c-0.127-0.384-0.04-0.604,0.166-0.742c1.15,1.41,2.197,2.895,3.236,4.392
						c0.064,0.129,0.126,0.259,0.19,0.387c0.298,1.206,0.538,2.434,0.768,3.671v17.066c0,0.086,0.231,0.154,0.231,0.24
						c-1.342,2.071-2.812,4.018-3.916,6.225v-11.307c-1.521-1.863-2.58-4.101-3.057-6.458c-0.008-0.041-0.008-0.086-0.01-0.13
						c-3.895,1.489-8.432-0.433-12.244-2.192c-3.784,2.259-9.655,3.632-13.511,1.496
						C512.193,115.648,513.034,111.968,515.069,109.038z"/>
					<path style="fill:#2C201B;" d="M539.406,118.781L539.406,118.781c2.71,0,4.928-2.218,4.928-4.928v-3.412
						c0-2.711-2.218-4.928-4.928-4.928l0,0c-2.711,0-4.928,2.218-4.928,4.928v3.412
						C534.478,116.564,536.696,118.781,539.406,118.781z"/>
					<path style="fill:#2C201B;" d="M537.879,106.129c1.368-1.401,3.776-1.397,5.408-0.315c1.632,1.083,2.551,3.007,2.854,4.942
						c0.303,1.935,0.067,3.909-0.17,5.853c-0.472,3.883-0.945,7.766-1.418,11.649C543.971,120.329,541.458,113.227,537.879,106.129z
						"/>
					<path style="fill:#FBF6F1;" d="M530.889,141.023c-0.058,3.153-2.579,5.692-5.686,5.692c-3.107,0-5.629-2.539-5.687-5.692
						H530.889z"/>
					<g>
						<path style="fill:#FFFFFF;" d="M526.723,131.549c0,0.452,0.499,0.861,1.318,1.166c0.488,0.184,1.092,0.331,1.77,0.42
							c0.531,0.068,1.103,0.11,1.707,0.11c0.41,0,0.809-0.016,1.192-0.052c0.273-0.026,0.541-0.058,0.793-0.1
							c1.654-0.268,2.805-0.856,2.805-1.544c0-0.635-0.998-1.192-2.468-1.481c-0.252-0.052-0.52-0.089-0.798-0.121
							c-0.478-0.058-0.993-0.089-1.523-0.089c-0.761-0.005-1.476,0.058-2.117,0.168c-0.635,0.116-1.192,0.273-1.628,0.462
							C527.116,130.782,526.723,131.15,526.723,131.549z"/>
						<path style="fill:#2F1F1A;" d="M527.615,131.265c-0.016,0.53,0.142,1.029,0.426,1.45c0.488,0.184,1.092,0.331,1.77,0.42
							c0.531,0.068,1.103,0.11,1.707,0.11c0.41,0,0.809-0.016,1.192-0.052c0.483-0.446,0.783-1.05,0.809-1.728
							c0.016-0.557-0.158-1.082-0.478-1.518c-0.478-0.058-0.993-0.089-1.523-0.089c-0.761-0.005-1.476,0.058-2.117,0.168
							c-0.635,0.116-1.192,0.273-1.628,0.462C527.684,130.734,527.626,130.992,527.615,131.265z"/>
					</g>
					<g>
						<path style="fill:#FFFFFF;" d="M513.386,131.48c0,0.368,0.331,0.709,0.898,0.987c0.541,0.263,1.303,0.473,2.19,0.593
							c0.525,0.074,1.103,0.116,1.701,0.116c0.531,0,1.04-0.032,1.513-0.089c0.163-0.016,0.32-0.037,0.473-0.063
							c1.66-0.268,2.81-0.856,2.81-1.544c0-0.641-0.998-1.192-2.474-1.481c-0.226-0.042-0.457-0.084-0.704-0.11
							c-0.504-0.068-1.05-0.105-1.618-0.105c-0.756,0-1.476,0.063-2.111,0.173c-0.767,0.131-1.413,0.336-1.88,0.588
							C513.68,130.813,513.386,131.133,513.386,131.48z"/>
						<path style="fill:#2F1F1A;" d="M514.042,131.296c-0.016,0.415,0.074,0.809,0.242,1.171c0.541,0.263,1.303,0.473,2.19,0.593
							c0.525,0.074,1.103,0.116,1.701,0.116c0.531,0,1.04-0.032,1.513-0.089c0.368-0.441,0.588-0.982,0.609-1.581
							c0.021-0.593-0.168-1.155-0.504-1.618c-0.504-0.068-1.05-0.105-1.618-0.105c-0.756,0-1.476,0.063-2.111,0.173
							c-0.767,0.131-1.413,0.336-1.88,0.588C514.1,130.781,514.048,131.033,514.042,131.296z"/>
					</g>
					
						<polyline style="fill:none;stroke:#452D20;stroke-width:0.481;stroke-linecap:round;stroke-linejoin:round;stroke-miterlimit:10;" points="
						524.011,130.167 524.171,134.657 520.804,133.054 522.568,137.383 					"/>
					
						<path style="fill:none;stroke:#2C201B;stroke-width:2.8263;stroke-linecap:round;stroke-linejoin:round;stroke-miterlimit:10;" d="
						M537.018,127.298c-0.2-0.509-0.645-0.881-1.108-1.172c-2.309-1.447-5.23-1.337-7.951-1.179"/>
					
						<path style="fill:none;stroke:#2C201B;stroke-width:2.8263;stroke-linecap:round;stroke-linejoin:round;stroke-miterlimit:10;" d="
						M521.685,124.854c-2.536-0.177-5.118,0.348-7.384,1.501"/>
				</g>
				<g>
					<path style="fill:#DE6944;" d="M619.155,400.274l-86.452-74.889c-10.033-6.972-15.306-7.886-8.334-17.919
						c6.973-10.034,7.376-10.23,17.41-3.258l57.869,28.633c-1.264-6.525-2.569-13.27-3.867-20.002
						c-4.125-21.394-7.381-38.482-9.679-50.788c-1.375-7.366-2.422-13.106-3.114-17.062c-1.523-8.722-3.099-17.74,5.164-26.004
						c8.639-8.639,22.646-8.639,31.285,0c3.963,3.963,6.108,9.056,6.435,14.241c1.607,10.858,17.651,93.761,27.615,144.63
						c1.732,8.841-2.071,17.849-9.615,22.774c-3.679,2.403-7.888,3.599-12.094,3.599
						C627.361,404.23,622.945,402.909,619.155,400.274z M619.438,250.272c0.008-0.008,0.014-0.016,0.022-0.023
						C619.453,250.257,619.445,250.264,619.438,250.272z M619.466,250.243c0.006-0.006,0.012-0.012,0.018-0.018
						C619.479,250.231,619.473,250.238,619.466,250.243z M619.498,250.211c0.003-0.002,0.005-0.005,0.008-0.008
						C619.504,250.206,619.501,250.209,619.498,250.211z M625.792,236.995c0.095-0.854,0.134-1.675,0.126-2.45
						C625.92,235.363,625.878,236.181,625.792,236.995z"/>
				</g>
				<path style="fill:#2C201B;" d="M542.858,128.387c-5.148,4.512-7.207,12.234-4.99,18.711c2.648-0.639,4.635-0.918,6.856-2.495
					c-0.338-6.38-0.078-13.232,0.538-19.592"/>
			</g>
			<path style="fill:none;stroke:#2C201B;stroke-linecap:round;stroke-linejoin:round;stroke-miterlimit:10;" d="M454.606,237.949
				c0,0,1.645,25.088,13.572,40.305l1.234,16.451"/>
			<path style="fill:#2C201B;" d="M523.509,116.86c-3.09,2.44-7.324,3.099-11.207,2.445c-3.883-0.655-7.468-2.5-10.769-4.645
				c-4.817-3.13-9.239-7.019-12.279-11.893c-3.039-4.874-4.605-10.809-3.569-16.459c1.036-5.65,4.905-10.879,10.304-12.84
				c5.399-1.961,12.136-0.141,15.265,4.675c2.162,3.328,2.461,7.48,3.02,11.409c0.559,3.929,1.632,8.136,4.746,10.597
				c2.129,1.682,4.885,2.279,7.467,3.114c2.582,0.835,5.264,2.125,6.49,4.545c1.226,2.421,0.025,6.102-2.674,6.386"/>
			<g>
				<path style="fill:#D9C6B9;" d="M653.488,377.856C647.859,349.125,643.478,322.76,638,294c-2.606-13.681-4.936-27.228-7-41
					c-1.579-10.536-3.502-25.954-11.562-34.014c-8.639-8.639-22.646-8.639-31.285,0c-8.263,8.264-6.688,17.282-5.164,26.004
					c0.691,3.956,1.739,9.696,3.114,17.062c2.298,12.306,5.554,29.394,9.679,50.788c1.298,6.732,2.602,13.476,3.866,20.002
					l-51.864-25.661c-0.33,0.857-0.669,1.711-1.029,2.552c-0.008,0.34-0.08,0.685-0.247,1.019
					c-3.072,6.142-6.204,12.216-10.091,17.852l82.737,71.671c3.791,2.635,8.206,3.956,12.625,3.956
					c4.206,0,8.415-1.196,12.094-3.599C651.417,395.705,655.22,386.697,653.488,377.856z"/>
				<path style="fill:#9A91F2;" d="M619.438,250.272c0.008-0.008,0.014-0.016,0.022-0.023
					C619.453,250.257,619.445,250.264,619.438,250.272z"/>
				<path style="fill:#9A91F2;" d="M619.466,250.243c0.006-0.006,0.012-0.012,0.018-0.018
					C619.479,250.231,619.473,250.238,619.466,250.243z"/>
				<path style="fill:#9A91F2;" d="M619.498,250.211c0.003-0.002,0.005-0.005,0.008-0.008
					C619.504,250.206,619.501,250.209,619.498,250.211z"/>
			</g>
			<path style="fill:#DE6944;" d="M481.492,301.817c-0.025,3.781,3.555,7.879,5.647,10.414c3.657,4.431,8.925,7.637,14.534,8.902
				c9.547,2.153,19.677-0.39,28.277-5.062c3.838-2.085,5.374-8.152,6.87-12.255c-0.897-3.754-4.059-6.079-7.594-7.63
				c-3.534-1.551-7.453-1.947-11.303-2.23c-2.072-0.152-4.161-0.281-6.22-0.554c-2.302-0.305-3.801,2.422-2.293,4.188
				c1.385,1.622,3.154,2.775,5.393,3.032c1.036,0.119,2.105,0.102,3.084,0.462c0.978,0.36,1.873,1.234,1.838,2.276
				c-0.03,0.913-0.742,1.658-1.445,2.225c-2.071,1.669-4.647,2.663-7.307,2.668c-7.869,0.016-11.569-6.9-17.085-11.036
				c-1.039-0.779-2.256-1.49-3.549-1.371c-1.293,0.12-2.512,1.452-2.053,2.667c-0.239-0.282-0.137,0.508,0.071,0.202
				c0.042-0.066-2.782-0.536-3.036-0.548c-1.524-0.07-2.937,0.249-3.52,1.869C481.592,300.616,481.496,301.212,481.492,301.817z"/>
			<path style="fill:none;stroke:#2C201B;stroke-linecap:round;stroke-linejoin:round;stroke-miterlimit:10;" d="M559.183,307.039
				c0,0,43.35,18.111,61.035,36.207"/>
			
				<line style="fill:none;stroke:#2C201B;stroke-linecap:round;stroke-linejoin:round;stroke-miterlimit:10;" x1="586.103" y1="262.052" x2="602.367" y2="329.247"/>
		</g>
	</g>
	<path style="fill:none;stroke:#EF9B00;stroke-linecap:round;stroke-linejoin:round;stroke-miterlimit:10;" d="M673.744,304.043
		c18.181-29.677,3.763-81.017-36.029-80.831c-0.092-13.668-7.251-27.229-16.906-36.903c-15.331-15.361-39.62-19.767-59.504-11.226"
		/>
	<path style="fill:#EF9B00;" d="M116.825,226.483l19.602,23.481c18.76-7.04,40.714-1.923,54.275,14.328l134.108,203.249H151.123
		L39.407,291.108c-17.167-20.568-14.411-51.155,6.157-68.322l2.938-2.451C69.07,203.159,99.658,205.916,116.825,226.483z"/>
	
		<line style="fill:none;stroke:#2C201B;stroke-linecap:round;stroke-linejoin:round;stroke-miterlimit:10;" x1="75.765" y1="258.585" x2="188.796" y2="454.309"/>
	
		<line style="fill:none;stroke:#2C201B;stroke-linecap:round;stroke-linejoin:round;stroke-miterlimit:10;" x1="90.55" y1="314.602" x2="171.039" y2="453.578"/>
	<path style="fill:#262222;" d="M78.133,252.749c-0.224,3.297-3.079,5.788-6.376,5.564c-3.297-0.224-5.788-3.079-5.564-6.376
		c0.224-3.297,3.079-5.788,6.376-5.564C75.866,246.597,78.357,249.452,78.133,252.749z"/>
	<path style="fill:none;stroke:#262222;stroke-width:1.5;stroke-linecap:round;stroke-linejoin:round;stroke-miterlimit:10;" d="
		M90.81,310.779c-0.144,2.112-1.972,3.707-4.083,3.564c-2.112-0.143-3.707-1.972-3.564-4.083c0.144-2.112,1.972-3.707,4.083-3.564
		C89.358,306.839,90.954,308.667,90.81,310.779z"/>
	<path style="fill:none;stroke:#2C201B;stroke-width:1.5611;stroke-linecap:round;stroke-linejoin:round;stroke-miterlimit:10;" d="
		M376.851,429.69"/>
	<polygon style="fill:#F4DBA8;" points="493.998,335.491 494.386,335.29 494.774,335.491 494.386,335.693 	"/>
	<polygon style="fill:#D6D6F8;" points="494.774,335.491 494.386,335.693 493.998,335.491 494.386,335.29 	"/>
	<polygon style="fill:#D6D6F8;" points="494.386,335.29 494.774,335.491 494.386,335.693 493.998,335.491 	"/>
	<path style="fill:none;stroke:#422E22;stroke-width:1.0753;stroke-linecap:round;stroke-linejoin:round;stroke-miterlimit:10;" d="
		M315.136,213.88c0,0-5.751-0.601-7.575,3.885"/>
	<g>
		
			<line style="fill:none;stroke:#2C201B;stroke-width:1.6874;stroke-linecap:round;stroke-linejoin:round;stroke-miterlimit:10;" x1="183.002" y1="0.318" x2="183.002" y2="148.722"/>
		<rect x="174.001" y="111.682" width="17.337" height="49.466"/>
		<g>
			<circle style="fill:#EF9B00;" cx="182.669" cy="188.937" r="17.065"/>
			<rect x="174.747" y="160.54" width="15.844" height="21.312"/>
			
				<path style="fill:none;stroke:#2C201B;stroke-width:1.1837;stroke-linecap:round;stroke-linejoin:round;stroke-miterlimit:10;" d="
				M179.26,194.229L179.26,194.229c-1.27,0-2.299-1.029-2.299-2.299v-19.512c0-1.27,1.029-2.299,2.299-2.299l0,0
				c1.27,0,2.299,1.029,2.299,2.299v19.512C181.56,193.199,180.53,194.229,179.26,194.229z"/>
			
				<path style="fill:none;stroke:#2C201B;stroke-width:1.1837;stroke-linecap:round;stroke-linejoin:round;stroke-miterlimit:10;" d="
				M186.078,194.229L186.078,194.229c-1.27,0-2.299-1.029-2.299-2.299v-19.512c0-1.27,1.029-2.299,2.299-2.299l0,0
				c1.27,0,2.299,1.029,2.299,2.299v19.512C188.377,193.199,187.348,194.229,186.078,194.229z"/>
		</g>
		
			<path style="fill:none;stroke:#4B39CF;stroke-width:1.1558;stroke-linecap:round;stroke-linejoin:round;stroke-miterlimit:10;" d="
			M174.001,150.67c0-0.543,17.337,0,17.337,0"/>
		
			<path style="fill:none;stroke:#2C201B;stroke-width:1.6874;stroke-linecap:round;stroke-linejoin:round;stroke-miterlimit:10;" d="
			M183.779,156.038c7.719,7.045,20.225,18.983,29.367,24.046c9.142,5.063,19.881,7.96,30.131,5.92
			c7.561-1.504,14.113-5.288,18.756-10.698c3.86-4.498,6.4-10.119,7.1-16.49c0,0-203.197,0-203.207,0
			c-0.13,0,3.331-11.413,3.773-12.442c1.811-4.216,4.142-8.242,7.099-11.762c27.597-32.862,80.302-8.088,99.558,21.299"/>
		
			<polyline style="fill:none;stroke:#2C201B;stroke-width:1.6874;stroke-linecap:round;stroke-linejoin:round;stroke-miterlimit:10;" points="
			103.283,119.591 174.001,158.142 128.385,121.536 		"/>
		
			<polyline style="fill:none;stroke:#2C201B;stroke-width:1.6874;stroke-linecap:round;stroke-linejoin:round;stroke-miterlimit:10;" points="
			76.798,134.611 174.001,158.142 88.176,127.184 		"/>
		
			<path style="fill:none;stroke:#2C201B;stroke-width:1.6874;stroke-linecap:round;stroke-linejoin:round;stroke-miterlimit:10;" d="
			M69.7,146.373c1.862-3.887,106.16,12.442,106.16,12.442"/>
		
			<path style="fill:none;stroke:#2C201B;stroke-width:1.6874;stroke-linecap:round;stroke-linejoin:round;stroke-miterlimit:10;" d="
			M183.779,156.038"/>
		
			<line style="fill:none;stroke:#2C201B;stroke-width:1.6874;stroke-linecap:round;stroke-linejoin:round;stroke-miterlimit:10;" x1="235.728" y1="186.654" x2="183.779" y2="156.038"/>
		
			<line style="fill:none;stroke:#2C201B;stroke-width:1.6874;stroke-linecap:round;stroke-linejoin:round;stroke-miterlimit:10;" x1="251.545" y1="183.271" x2="187.349" y2="158.142"/>
		
			<line style="fill:none;stroke:#2C201B;stroke-width:1.6874;stroke-linecap:round;stroke-linejoin:round;stroke-miterlimit:10;" x1="193.171" y1="158.816" x2="262.033" y2="175.306"/>
		
			<line style="fill:none;stroke:#2C201B;stroke-width:1.6874;stroke-linecap:round;stroke-linejoin:round;stroke-miterlimit:10;" x1="267.058" y1="167.061" x2="199.734" y2="158.816"/>
	</g>
	<g>
		<path style="fill:#EF9B00;" d="M145.577,195.403c2.398-2.08,2.657-5.71,0.577-8.108c-2.08-2.398-5.71-2.657-8.108-0.577
			c-2.398,2.08-2.657,5.71-0.577,8.108C139.548,197.224,143.179,197.482,145.577,195.403z"/>
		<path style="fill:none;stroke:#EF9B00;stroke-linecap:round;stroke-linejoin:round;stroke-miterlimit:10;" d="M169.995,230.634
			c-16.569-5.002-28.872-21.642-28.799-38.949"/>
	</g>
	<g>
		<path style="fill:#2C201B;" d="M699.596,429.547c2.08-2.398,5.71-2.657,8.108-0.577c2.398,2.08,2.657,5.71,0.577,8.108
			c-2.08,2.398-5.71,2.657-8.108,0.577C697.774,435.576,697.516,431.945,699.596,429.547z"/>
		<path style="fill:none;stroke:#2C201B;stroke-linecap:round;stroke-linejoin:round;stroke-miterlimit:10;" d="M664.365,405.129
			c5.002,16.569,21.642,28.872,38.949,28.798"/>
	</g>
	<g>
		<path style="fill:#EF9B00;" d="M700.237,147.485c-2.398-2.08-2.657-5.71-0.577-8.108c2.08-2.398,5.71-2.657,8.108-0.577
			c2.398,2.08,2.657,5.71,0.577,8.108C706.266,149.307,702.636,149.565,700.237,147.485z"/>
		<path style="fill:none;stroke:#EF9B00;stroke-linecap:round;stroke-linejoin:round;stroke-miterlimit:10;" d="M675.819,182.716
			c16.569-5.002,28.872-21.642,28.799-38.949"/>
	</g>
	<path style="fill:none;stroke:#2C201B;stroke-linecap:round;stroke-linejoin:round;stroke-miterlimit:10;" d="M501.933,197.188
		c11.297,18.087,46.146,4.163,59.373-4.496"/>
	
		<circle style="fill:none;stroke:#2C201B;stroke-width:1.5;stroke-linecap:round;stroke-linejoin:round;stroke-miterlimit:10;" cx="392.136" cy="74.718" r="6.093"/>
	<path style="fill:none;stroke:#2C201B;stroke-width:1.5;stroke-linecap:round;stroke-linejoin:round;stroke-miterlimit:10;" d="
		M421.17,87.802c0,1.942-1.575,3.517-3.517,3.517c-1.942,0-3.517-1.575-3.517-3.517c0-1.942,1.575-3.517,3.517-3.517
		C419.595,84.285,421.17,85.859,421.17,87.802z"/>
	
		<circle style="fill:none;stroke:#2C201B;stroke-width:1.5;stroke-linecap:round;stroke-linejoin:round;stroke-miterlimit:10;" cx="273.918" cy="124.72" r="2.607"/>
	
		<circle style="fill:none;stroke:#2C201B;stroke-width:1.5;stroke-linecap:round;stroke-linejoin:round;stroke-miterlimit:10;" cx="280.063" cy="89.933" r="5.648"/>
	<path style="fill:none;stroke:#2C201B;stroke-width:2.3913;stroke-linecap:round;stroke-linejoin:round;stroke-miterlimit:10;" d="
		M109.088,185.563c0,1.385-1.123,2.508-2.508,2.508c-1.385,0-2.507-1.123-2.507-2.508s1.123-2.507,2.507-2.507
		C107.965,183.055,109.088,184.178,109.088,185.563z"/>
	<path style="fill:none;stroke:#2C201B;stroke-width:1.5;stroke-linecap:round;stroke-linejoin:round;stroke-miterlimit:10;" d="
		M211.641,237.19c0,3.152-2.555,5.708-5.708,5.708c-3.152,0-5.708-2.555-5.708-5.708s2.555-5.708,5.708-5.708
		C209.085,231.483,211.641,234.038,211.641,237.19z"/>
	<path style="fill:none;stroke:#2C201B;stroke-width:1.5;stroke-linecap:round;stroke-linejoin:round;stroke-miterlimit:10;" d="
		M224.283,214.462c0,1.824-1.479,3.303-3.303,3.303s-3.303-1.479-3.303-3.303c0-1.824,1.479-3.303,3.303-3.303
		S224.283,212.638,224.283,214.462z"/>
	<path style="fill:none;stroke:#2C201B;stroke-width:2.3913;stroke-linecap:round;stroke-linejoin:round;stroke-miterlimit:10;" d="
		M58.195,397.252c0,0.744-0.603,1.347-1.347,1.347c-0.744,0-1.347-0.603-1.347-1.347c0-0.744,0.603-1.348,1.347-1.348
		C57.592,395.905,58.195,396.508,58.195,397.252z"/>
	<path style="fill:none;stroke:#2C201B;stroke-width:1.5;stroke-linecap:round;stroke-linejoin:round;stroke-miterlimit:10;" d="
		M425.51,263.315c0,2.169-1.759,3.928-3.928,3.928c-2.169,0-3.928-1.759-3.928-3.928s1.759-3.928,3.928-3.928
		C423.751,259.386,425.51,261.145,425.51,263.315z"/>
	<path style="fill:none;stroke:#2C201B;stroke-width:1.5;stroke-linecap:round;stroke-linejoin:round;stroke-miterlimit:10;" d="
		M412.324,430.16c0,2.314-1.876,4.191-4.191,4.191c-2.314,0-4.191-1.876-4.191-4.191s1.876-4.191,4.191-4.191
		C410.448,425.969,412.324,427.846,412.324,430.16z"/>
	<path style="fill:none;stroke:#2C201B;stroke-width:1.5;stroke-linecap:round;stroke-linejoin:round;stroke-miterlimit:10;" d="
		M432.328,418.685c0,1.883-1.526,3.409-3.409,3.409s-3.409-1.526-3.409-3.409c0-1.883,1.526-3.409,3.409-3.409
		S432.328,416.802,432.328,418.685z"/>
	<path style="fill:none;stroke:#2C201B;stroke-width:1.5;stroke-linecap:round;stroke-linejoin:round;stroke-miterlimit:10;" d="
		M634.601,152.864c0,3.972-3.22,7.191-7.191,7.191c-3.972,0-7.191-3.22-7.191-7.191c0-3.972,3.22-7.191,7.191-7.191
		C631.381,145.673,634.601,148.893,634.601,152.864z"/>
	
		<circle style="fill:none;stroke:#2C201B;stroke-width:1.5;stroke-linecap:round;stroke-linejoin:round;stroke-miterlimit:10;" cx="636.817" cy="110.474" r="3.063"/>
	<path style="fill:none;stroke:#EF9B00;stroke-linecap:round;stroke-linejoin:round;stroke-miterlimit:10;" d="M406.991,150.703
		c19.778-2.711,37.627-15.204,48.452-31.978c10.824-16.774,14.886-37.451,13.01-57.326"/>
	<circle style="fill:#EF9B00;" cx="468.804" cy="56.993" r="8.062"/>
	<g>
		
			<path style="fill:#2C201B;stroke:#2C201B;stroke-width:1.6241;stroke-linecap:round;stroke-linejoin:round;stroke-miterlimit:10;" d="
			M584.723,405.873c-7.945-10.811-8.618-25.4-6.472-38.644c2.147-13.244,6.767-26.031,8.33-39.356
			c0.649,21.396,15.748,41.099,17.626,62.423c0.315,3.573,0.26,7.268-1.02,10.619c-1.281,3.351-3.968,6.323-7.451,7.181
			C592.253,408.954,586.847,408.764,584.723,405.873z"/>
		<path style="fill:#8080D0;" d="M569.132,403.196c-5.53-8.983-8.378-19.317-11.158-29.493c-2.87-10.504-5.74-21.007-8.609-31.511
			c12.442,14.857,24.885,29.714,37.327,44.572c5.61,6.699,18.207,22.632,8.291,30.986
			C585.919,425.384,573.297,409.962,569.132,403.196z"/>
		<path style="fill:#8080D0;" d="M617.264,406.547c5.53-8.983,8.378-19.317,11.158-29.493c2.87-10.504,5.74-21.007,8.61-31.511
			c-12.442,14.857-24.885,29.715-37.327,44.572c-5.61,6.699-18.207,22.632-8.291,30.986
			C600.477,428.735,613.098,413.312,617.264,406.547z"/>
		<path style="fill:#BEBCEE;" d="M605.92,472.582h-27.658c-6.992,0-12.659-5.668-12.659-12.659v-44.646h52.976v44.646
			C618.579,466.914,612.912,472.582,605.92,472.582z"/>
		
			<polyline style="fill:none;stroke:#2C201B;stroke-width:1.5;stroke-linecap:round;stroke-linejoin:round;stroke-miterlimit:10;" points="
			565.603,373.742 594.982,417.749 621.31,377.874 		"/>
		
			<line style="fill:none;stroke:#2C201B;stroke-width:1.5;stroke-linecap:round;stroke-linejoin:round;stroke-miterlimit:10;" x1="565.603" y1="429.69" x2="618.579" y2="429.69"/>
	</g>
	<path style="fill:none;stroke:#2C201B;stroke-width:1.5;stroke-linecap:round;stroke-linejoin:round;stroke-miterlimit:10;" d="
		M77.388,470.685c155.429,0,398.205,1.897,553.492,1.897"/>
	<g>
		
			<path style="fill:#2C201B;stroke:#2C201B;stroke-width:1.6241;stroke-linecap:round;stroke-linejoin:round;stroke-miterlimit:10;" d="
			M306.226,176.574c-15.659-4.742-35.459,2.138-41.986,16.64c-7.626,16.945,2.376,38.591-9.273,53.512
			c-7.415,9.499-21.203,12.715-33.936,13.766c-12.732,1.051-26.051,0.727-37.589,5.748c-11.539,5.021-20.384,17.867-14.871,28.388
			c-17.987,12.075-28.543,38.45-20.1,57.309c8.443,18.859,31.841,31.112,53.954,28.254h187.955c17.815,0,34.415-13.06,42.14-27.702
			c7.725-14.642,7.366-32.448-0.179-47.168c-4.939-9.636-14.288-18.668-25.949-18.838c3.967-9.443-5.825-18.54-15.008-24.208
			c-9.182-5.668-20.414-7.622-31.052-10.471c-10.626-2.846-21.611-7.198-27.524-15.736c-10.73-15.492-0.573-37.179-13.589-51.459
			C315.658,180.701,311.146,178.064,306.226,176.574z"/>
		<g>
			<path style="fill:#974F41;" d="M373.102,470.61c-2.254-10.231-6.4-20.123-12.096-28.709
				c-6.818-10.277-16.018-19.131-23.116-29.255c-7.098-10.123-12.107-22.313-9.151-33.979l-63.265,6.306
				c-2.55,28.703-6.673,57.29-12.299,85.637H373.102z"/>
			<path style="fill:#2C201B;" d="M373.102,470.61c-2.254-10.231-6.4-20.123-12.096-28.709
				c-6.818-10.277-16.018-19.131-23.116-29.255c-0.422-0.602-0.837-1.213-1.243-1.829c-7.152,0.077-14.304,0.093-21.457,0.032
				c-3.09-0.027-6.179-0.068-9.269-0.125h-43.156c-2.435,20.053-5.647,40.029-9.591,59.887H373.102z"/>
			<path style="fill:#974F41;" d="M315.136,263.293c-9.036-4.937-15.852-19.985-13.014-31.811l-17.477,5.707
				c0.235,7.049-2.293,12.529-6.175,18.418c-2.024,3.069-6.12,5.788-9.654,6.799c5.105,6.837,13.942,10.257,22.473,10.473
				C299.819,273.096,309.691,269.863,315.136,263.293z"/>
			<path style="fill:#974F41;" d="M289.739,238.25L289.739,238.25c-8.799,0-15.999-7.2-15.999-15.999v-23.196
				c0-8.799,7.199-15.999,15.999-15.999l0,0c8.799,0,15.999,7.2,15.999,15.999v23.196C305.738,231.05,298.539,238.25,289.739,238.25
				z"/>
			<path style="fill:#974F41;" d="M319.105,216.878c0,4.016-3.255,7.271-7.271,7.271c-4.016,0-7.271-3.255-7.271-7.271
				c0-4.016,3.255-7.271,7.271-7.271C315.85,209.607,319.105,212.862,319.105,216.878z"/>
			<path style="fill:#2C201B;" d="M280.317,212.173l3.341-1.175c0.472-0.166,0.722-0.688,0.556-1.159l0,0
				c-0.166-0.472-0.688-0.722-1.159-0.556l-3.341,1.175c-0.472,0.166-0.722,0.688-0.556,1.159l0,0
				C279.324,212.089,279.846,212.339,280.317,212.173z"/>
			<path style="fill:#2C201B;" d="M292.592,209.82l3.246,1.415c0.458,0.2,0.997-0.012,1.197-0.47l0,0
				c0.2-0.458-0.012-0.997-0.47-1.197l-3.246-1.415c-0.458-0.2-0.997,0.012-1.197,0.47l0,0
				C291.922,209.081,292.133,209.62,292.592,209.82z"/>
			
				<polyline style="fill:none;stroke:#422E22;stroke-width:0.5376;stroke-linecap:round;stroke-linejoin:round;stroke-miterlimit:10;" points="
				287.43,217.483 287.572,221.447 284.599,220.031 286.156,223.855 			"/>
			
				<path style="fill:none;stroke:#422E22;stroke-width:1.0753;stroke-linecap:round;stroke-linejoin:round;stroke-miterlimit:10;" d="
				M290.296,217.765c0,0,3.226-2.867,6.452-0.717"/>
			
				<path style="fill:none;stroke:#422E22;stroke-width:1.0753;stroke-linecap:round;stroke-linejoin:round;stroke-miterlimit:10;" d="
				M278.468,217.765c0,0,3.226-2.867,6.452-0.717"/>
			<path style="fill:#2C201B;" d="M284.371,225.053l6.035-0.083c-0.184,1.147-1.244,2.02-2.389,2.218
				C286.024,227.533,284.867,226.458,284.371,225.053z"/>
		</g>
		<g>
			<path style="fill:#974F41;" d="M259.915,435.932l-9.407,6.995c0,0,0.137,0.18,0.393,0.504l-67.345-29.648
				c-7.269-3.198-10.609-11.79-7.468-19.185c0.04-0.094,0.079-0.184,0.119-0.279l0.742-1.633l29.393-64.617
				c4.039,12.631,11.004,27.087,22.307,35.917l-17.009,30.387l-12.098-9.015l6.606,21.093l5.492-12.078l47.947,35.725
				c0.309,0.229,0.597,0.477,0.862,0.751c-0.446,0.113-0.897,0.23-1.343,0.342C259.265,432.797,259.5,434.394,259.915,435.932z"/>
			<polygon style="fill:#974F41;" points="199.542,385.358 211.641,394.373 206.148,406.451 			"/>
			<path style="fill:#974F41;" d="M262.491,438.73c-0.159,0.558-0.376,1.102-0.658,1.624c-0.164,0.306-0.345,0.598-0.552,0.886
				c-0.234,0.324-0.486,0.625-0.756,0.9c-2.271,2.343-5.731,3-8.669,1.709l-0.954-0.418c-0.256-0.324-0.393-0.504-0.393-0.504
				l9.407-6.995c-0.415-1.538-0.65-3.135-0.809-4.741c0.446-0.112,0.897-0.229,1.343-0.342c0.924,0.913,1.582,2.029,1.957,3.23
				C262.889,435.573,262.924,437.197,262.491,438.73z"/>
			<path style="fill:#974F41;" d="M260.68,445.319l3.204,10.12c1.027,3.246,4.477,5.046,7.666,4l9.242-3.032
				c3.188-1.046,4.956-4.558,3.929-7.804l-3.204-10.121c-1.028-3.246-4.477-5.046-7.666-3.999l-9.242,3.033
				C261.42,438.561,259.652,442.073,260.68,445.319z"/>
			<path style="fill:#974F41;" d="M268.023,459.364c-0.168,0.005-0.345-0.013-0.535-0.049c-4.569-0.895-14.493-13.225-16.588-15.883
				c-0.256-0.324-0.393-0.504-0.393-0.504l9.407-6.995l2.492-1.853l1.343-0.999l0.729,4.48l0.999,6.135L268.023,459.364z"/>
			<path style="fill:#974F41;" d="M251.069,442.665c0.185,3.247,1.374,6.428,3.354,8.981c3.251,4.189,8.277,6.426,12.637,9.393
				c0.587,0.4,1.17,0.819,1.652,1.344c0.663,0.722,1.111,1.616,1.589,2.476c1.163,2.092,2.553,4.053,4.135,5.836
				c0.69,0.777,1.467,1.552,2.463,1.815c0.996,0.263,2.245-0.198,2.516-1.208c0.218-0.811-0.234-1.636-0.659-2.357
				c-1.997-3.391-3.776-6.915-5.321-10.542c1.665,0.934,3.584,2.001,4.839,3.455c1.494,1.731,2.633,3.769,4.229,5.402
				c2.09,2.138,4.85,3.465,7.654,4.437c0.655,0.227,1.38,0.436,2.023,0.176c0.643-0.26,1.025-1.211,0.518-1.691
				c1.642,0.513,3.613,0.948,4.632-0.461c1.236-1.709-0.457-3.945-1.805-5.563c-4.981-5.985-6.172-14.489-11.016-20.59
				c-3.741-4.713-9.279-7.518-14.726-9.96"/>
			<path style="fill:#974F41;" d="M267.091,431.685c6.668,1.954,14.115,2.76,19.187,7.58c1.135,1.078,2.103,2.323,3.141,3.498
				c2.233,2.528,4.792,4.74,7.467,6.777c0.957,0.729,2.027,1.618,2.043,2.834c-7.331-0.786-12.418-7.858-19.296-10.557
				c-5.286-2.074-11.542-1.52-16.233-4.753c-2.034-1.402-3.534-3.386-5.015-5.345c-1.118-1.478-4.077-4.084-4.265-5.749
				C258.48,427.867,262.443,430.323,267.091,431.685z"/>
		</g>
		<g>
			<path style="fill:#974F41;" d="M423.032,371.608c-0.056-0.084-0.112-0.163-0.169-0.247l-1.031-1.442
				c0,0-25.728-34.171-25.892-34.054c-8.646,6.14-20.813,15.137-26.49,19.552l18.515,22.619l10.264-10.985l-2.635,21.647
				l-7.629-10.662l-40.677,43.535c-0.263,0.28-0.5,0.572-0.711,0.888c0.46,0.025,0.926,0.054,1.386,0.079
				c0.138,1.584,0.201,3.173,0.074,4.74l10.552,5.011c0,0-0.102,0.2-0.295,0.561l60.904-41.28
				C425.772,387.116,427.485,378.177,423.032,371.608z"/>
			<polygon style="fill:#974F41;" points="398.229,367.05 387.965,378.036 395.594,388.697 			"/>
			<path style="fill:#974F41;" d="M346.013,430.467c0.259,0.51,0.572,0.996,0.947,1.448c0.217,0.265,0.449,0.514,0.707,0.754
				c0.29,0.27,0.594,0.514,0.91,0.729c2.668,1.844,6.197,1.833,8.855,0.034l0.863-0.583c0.193-0.361,0.295-0.561,0.295-0.561
				l-10.552-5.011c0.127-1.566,0.064-3.156-0.074-4.74c-0.46-0.026-0.926-0.054-1.386-0.079c-0.742,1.056-1.186,2.259-1.336,3.491
				C345.042,427.486,345.305,429.064,346.013,430.467z"/>
			<path style="fill:#974F41;" d="M349.007,436.505l-1.298,10.393c-0.417,3.333-3.484,5.72-6.818,5.303l-9.662-1.207
				c-3.333-0.416-5.72-3.484-5.303-6.818l1.298-10.393c0.416-3.333,3.484-5.72,6.818-5.303l9.662,1.207
				C347.037,430.103,349.424,433.172,349.007,436.505z"/>
			<path style="fill:#974F41;" d="M344.351,451.469c0.166-0.027,0.337-0.077,0.518-0.148c4.337-1.72,11.85-15.507,13.426-18.472
				c0.193-0.361,0.295-0.561,0.295-0.561l-10.552-5.011l-2.796-1.328l-1.507-0.715l0.104,4.472l0.143,6.124L344.351,451.469z"/>
			<path style="fill:#974F41;" d="M357.989,432.14c0.413,3.177-0.173,6.478-1.656,9.318c-2.433,4.661-6.974,7.766-10.725,11.452
				c-0.505,0.497-1.002,1.011-1.381,1.61c-0.521,0.823-0.798,1.771-1.111,2.693c-0.762,2.242-1.771,4.399-3.002,6.421
				c-0.537,0.881-1.161,1.777-2.094,2.217c-0.933,0.44-2.248,0.228-2.701-0.698c-0.364-0.744-0.07-1.627,0.217-2.404
				c1.345-3.655,2.45-7.397,3.306-11.196c-1.468,1.215-3.163,2.607-4.133,4.248c-1.154,1.955-1.902,4.139-3.175,6.018
				c-1.666,2.46-4.141,4.26-6.726,5.724c-0.604,0.342-1.279,0.68-1.96,0.548c-0.681-0.131-1.232-0.981-0.821-1.539
				c-1.524,0.803-3.386,1.592-4.648,0.42c-1.531-1.422-0.274-3.903,0.757-5.721c3.808-6.723,3.421-15.175,7.072-21.985
				c2.82-5.26,7.761-9.01,12.679-12.391"/>
			<path style="fill:#974F41;" d="M340.188,424.508c-6.21,3.137-13.399,5.309-17.511,10.921c-0.92,1.256-1.646,2.641-2.453,3.972
				c-1.736,2.864-3.851,5.483-6.112,7.954c-0.809,0.884-1.7,1.944-1.492,3.125c7.077-2.131,10.79-9.926,17.071-13.823
				c4.827-2.995,11.092-3.628,15.12-7.634c1.747-1.737,2.86-3.937,3.96-6.11c0.83-1.64,3.266-4.714,3.146-6.36
				C347.97,419.205,344.516,422.322,340.188,424.508z"/>
		</g>
		<path style="fill:#F3A1A3;" d="M351.129,307.226c0.598-8.306,1.411-16.897-2.858-24.307c-0.1-0.173-0.204-0.341-0.31-0.509
			c-14.64-23.451-52.895-25.77-76.965-20.966c-5.014,1.001-9.954,2.379-14.758,4.144c-14.328,5.26-24.896,17.776-27.426,32.859
			c-3.154,18.803,10.347,29.186,12.39,46.208c2.015,16.786,0.372,34.395,3.561,50.99c2.268,11.806,12.515,20.782,24.682,20.782
			h57.297c13.776,0,25.048-11.272,25.048-25.048c0,0,0-41.172,0-41.189c0-12.253-1.216-24.485-0.988-36.74
			C350.84,311.41,350.978,309.327,351.129,307.226z"/>
		<path style="fill:none;stroke:#BEBCEE;stroke-width:0.9401;stroke-miterlimit:10;" d="M220.689,449.878l31.946,16.026
			c-24.456-9.547-50.833-14.143-77.076-13.43"/>
		<path style="fill:#974F41;" d="M342.506,334.46l36.687,43.712l-41.306,48.701c0,0-5.506,8.572,11.12,9.632l74.315-40.412
			c4.699-3.454,7.691-8.756,8.219-14.564l0,0c0.47-5.165-1.049-10.314-4.246-14.397l-70.356-84.153
			C356.94,282.979,328.913,282.017,342.506,334.46z"/>
		
			<path style="fill:none;stroke:#2C201B;stroke-width:1.5611;stroke-linecap:round;stroke-linejoin:round;stroke-miterlimit:10;" d="
			M332.359,272.014"/>
		
			<path style="fill:none;stroke:#2C201B;stroke-width:1.5611;stroke-linecap:round;stroke-linejoin:round;stroke-miterlimit:10;" d="
			M304.258,331.338"/>
		<polygon style="fill:#974F41;" points="155.168,391.442 239.051,277.239 241.202,344.655 211.641,394.373 		"/>
		
			<path style="fill:none;stroke:#2C201B;stroke-width:1.5611;stroke-linecap:round;stroke-linejoin:round;stroke-miterlimit:10;" d="
			M350.312,406.273"/>
		<path style="fill:#2C201B;" d="M269.133,207.99c1.89,1.028,4.224,0.651,6.279,0.013c8.283-2.569,15.238-9.106,18.315-17.214
			c1.701,9.196,7.752,14.821,16.938,16.576c-0.577-3.109-0.322-6.373-0.497-9.529c-0.478-8.619-6.144-16.527-13.738-20.632
			c-2.469-1.335-5.232-2.324-8.032-2.117c-2.57,0.19-4.975,1.377-7.071,2.877C273.332,183.684,266.694,198.466,269.133,207.99z"/>
		<path style="fill:#F3A1A3;" d="M190.504,325.195c0,0-1.747,37.627,42.368,44.179l18.197-20.092c0,0,16.001-56.729-12.018-72.043
			L190.504,325.195z"/>
		<path style="fill:#F3A1A3;" d="M323.829,264.316c0,0,26.422,6.345,49.273,26.437l41.034,49.356c0,0-18.345,32.322-47.609,33.632
			l-29.514-34.069C337.013,339.673,307.406,291.096,323.829,264.316z"/>
		<path style="fill:none;stroke:#2C201B;stroke-linecap:round;stroke-linejoin:round;stroke-miterlimit:10;" d="M217.174,300.221
			c7.465,10.596,20.193,17.341,33.188,17.221c24.574-0.226,39.254-24.554,54.917-40.032c6.658-6.579,15.21-12.078,24.57-12.017"/>
		<path style="fill:none;stroke:#2C201B;stroke-linecap:round;stroke-linejoin:round;stroke-miterlimit:10;" d="M374.544,291.515
			c-27.709-2.831-55.169,15.091-67.573,40.03c-12.404,24.939-14.995,56.238,0.445,84.882"/>
		<g>
			<path style="fill:#8080D0;" d="M321.758,473.882H158.639c-3.935,0-7.155-3.22-7.155-7.155v-0.15c0-3.935,3.22-7.155,7.155-7.155
				h163.119c3.935,0,7.155,3.22,7.155,7.155v0.15C328.913,470.662,325.693,473.882,321.758,473.882z"/>
			<path style="fill:#BEBCEE;" d="M154.645,467.751l-19.24-65.966c-2.038-6.989,3.117-14.002,10.292-14.002h104.65
				c4.342,0,8.257,2.658,9.918,6.733l23.086,56.652c2.949,7.236-2.346,15.177-10.055,15.074
				C236.795,465.757,151.862,464.925,154.645,467.751z"/>
			<circle style="fill:none;stroke:#2C201B;stroke-width:1.5513;stroke-miterlimit:10;" cx="200.226" cy="432.034" r="7.715"/>
		</g>
		
			<line style="fill:none;stroke:#2C201B;stroke-width:1.5;stroke-linecap:round;stroke-linejoin:round;stroke-miterlimit:10;" x1="250.346" y1="387.783" x2="280.792" y2="456.406"/>
		
			<line style="fill:none;stroke:#2C201B;stroke-width:1.5;stroke-linecap:round;stroke-linejoin:round;stroke-miterlimit:10;" x1="315.809" y1="467.542" x2="273.504" y2="467.542"/>
	</g>
	<path style="fill:none;stroke:#2C201B;stroke-width:1.5;stroke-linecap:round;stroke-linejoin:round;stroke-miterlimit:10;" d="
		M676.694,358.305c0,2.475-2.006,4.481-4.481,4.481s-4.481-2.006-4.481-4.481s2.006-4.481,4.481-4.481
		S676.694,355.83,676.694,358.305z"/>
	
		<ellipse transform="matrix(0.2289 -0.9734 0.9734 0.2289 199.47 893.8485)" style="fill:none;stroke:#2C201B;stroke-width:1.5;stroke-linecap:round;stroke-linejoin:round;stroke-miterlimit:10;" cx="663.966" cy="321.011" rx="8.248" ry="8.248"/>
	<path style="fill:#2C201B;" d="M645.372,185.463c0,1.517-1.23,2.747-2.747,2.747c-1.517,0-2.747-1.23-2.747-2.747
		c0-1.517,1.23-2.747,2.747-2.747C644.143,182.716,645.372,183.946,645.372,185.463z"/>
	<path style="fill:#2C201B;" d="M689.635,325.135c0,2.278-1.846,4.124-4.124,4.124c-2.278,0-4.124-1.846-4.124-4.124
		c0-2.278,1.846-4.124,4.124-4.124C687.788,321.011,689.635,322.858,689.635,325.135z"/>
	<circle style="fill:#2C201B;" cx="436.476" cy="271.39" r="4.147"/>
	<path style="fill:#2C201B;" d="M392.039,93.793c0,2.132-1.728,3.86-3.86,3.86c-2.132,0-3.86-1.728-3.86-3.86
		c0-2.132,1.728-3.86,3.86-3.86C390.311,89.933,392.039,91.661,392.039,93.793z"/>
	<circle style="fill:#2C201B;" cx="263.489" cy="110.997" r="3.039"/>
</g>
</svg>
