<?xml version="1.0" encoding="UTF-8"?>
<svg xmlns="http://www.w3.org/2000/svg" id="a" width="65px" height="65px" viewBox="0 0 65 65"><polygon points="28 13 36 13 35 10 36 7 28 7 28 13" fill="#fb3d80"/><path d="M28,26c-.55,0-1-.45-1-1V7c0-.55,.45-1,1-1s1,.45,1,1V25c0,.55-.45,1-1,1Z" fill="#839392"/><circle cx="61" cy="12" r="2" fill="#fec502"/><path d="M56,28.59l.71-.71c.39-.39,.39-1.02,0-1.41s-1.02-.39-1.41,0l-.71,.71-.71-.71c-.39-.39-1.02-.39-1.41,0s-.39,1.02,0,1.41l.71,.71-.71,.71c-.39,.39-.39,1.02,0,1.41,.2,.2,.45,.29,.71,.29s.51-.1,.71-.29l.71-.71,.71,.71c.2,.2,.45,.29,.71,.29s.51-.1,.71-.29c.39-.39,.39-1.02,0-1.41l-.71-.71Z" fill="#fec502"/><circle cx="46" cy="23" r="1" fill="#ffa50a"/><polygon points="3 57 12 30 19 42 28 18 39 52 45 41 51 57 3 57" fill="#53ea53"/><path d="M35.36,45c-.42,0-.81-.27-.95-.69l-5.5-17c-.17-.53,.12-1.09,.64-1.26,.53-.17,1.09,.12,1.26,.64l5.5,17c.17,.53-.12,1.09-.64,1.26-.1,.03-.21,.05-.31,.05Z" fill="#85f985"/><polygon points="40.64 49 39 52 38.03 49 11 49 15.39 35.82 12 30 3 57 51 57 48 49 40.64 49" fill="#3dc13d"/><path d="M8,19h-2c-.55,0-1-.45-1-1s.45-1,1-1h2c.55,0,1,.45,1,1s-.45,1-1,1Z" fill="#24d6ff"/><path d="M13,19h-2c-.55,0-1-.45-1-1s.45-1,1-1h2c.55,0,1,.45,1,1s-.45,1-1,1Z" fill="#24d6ff"/><path d="M18,19h-2c-.55,0-1-.45-1-1s.45-1,1-1h2c.55,0,1,.45,1,1s-.45,1-1,1Z" fill="#24d6ff"/><path d="M23,19h-2c-.55,0-1-.45-1-1s.45-1,1-1h2c.55,0,1,.45,1,1s-.45,1-1,1Z" fill="#24d6ff"/><path d="M28,19h-2c-.55,0-1-.45-1-1s.45-1,1-1h2c.55,0,1,.45,1,1s-.45,1-1,1Z" fill="#24d6ff"/><path d="M33,19h-2c-.55,0-1-.45-1-1s.45-1,1-1h2c.55,0,1,.45,1,1s-.45,1-1,1Z" fill="#24d6ff"/><path d="M38,19h-2c-.55,0-1-.45-1-1s.45-1,1-1h2c.55,0,1,.45,1,1s-.45,1-1,1Z" fill="#24d6ff"/><path d="M43,19h-2c-.55,0-1-.45-1-1s.45-1,1-1h2c.55,0,1,.45,1,1s-.45,1-1,1Z" fill="#24d6ff"/><path d="M48,19h-2c-.55,0-1-.45-1-1s.45-1,1-1h2c.55,0,1,.45,1,1s-.45,1-1,1Z" fill="#24d6ff"/><path d="M53,19h-2c-.55,0-1-.45-1-1s.45-1,1-1h2c.55,0,1,.45,1,1s-.45,1-1,1Z" fill="#24d6ff"/><path d="M54,56H4V10c0-.55-.45-1-1-1s-1,.45-1,1v4H1c-.55,0-1,.45-1,1s.45,1,1,1h1v4H1c-.55,0-1,.45-1,1s.45,1,1,1h1v4H1c-.55,0-1,.45-1,1s.45,1,1,1h1v4H1c-.55,0-1,.45-1,1s.45,1,1,1h1v4H1c-.55,0-1,.45-1,1s.45,1,1,1h1v4H1c-.55,0-1,.45-1,1s.45,1,1,1h1v4H1c-.55,0-1,.45-1,1s.45,1,1,1h1v4H1c-.55,0-1,.45-1,1s.45,1,1,1h1v1c0,.55,.45,1,1,1s1-.45,1-1v-1h4v1c0,.55,.45,1,1,1s1-.45,1-1v-1h4v1c0,.55,.45,1,1,1s1-.45,1-1v-1h4v1c0,.55,.45,1,1,1s1-.45,1-1v-1h4v1c0,.55,.45,1,1,1s1-.45,1-1v-1h4v1c0,.55,.45,1,1,1s1-.45,1-1v-1h4v1c0,.55,.45,1,1,1s1-.45,1-1v-1h4v1c0,.55,.45,1,1,1s1-.45,1-1v-1h8c.55,0,1-.45,1-1s-.45-1-1-1Z" fill="#2d3060"/></svg>
